<svg width="93" height="90" viewBox="0 0 93 90" fill="none" xmlns="http://www.w3.org/2000/svg">
<path d="M22.0047 22.8409C29.0595 30.1856 36.0331 37.615 43.1439 44.9067C46.6882 48.5636 50.2429 52.2094 53.858 55.7949C57.4429 59.4113 61.061 62.9924 64.7056 66.5462L75.6004 77.2459L86.3786 88.0642C87.3954 89.0736 89.016 89.4159 90.369 88.8925C91.7301 88.3977 92.7506 87.0673 92.8516 85.6015C92.9018 84.8741 92.7676 84.1312 92.4328 83.4701C92.104 82.7883 91.5266 82.2987 91.0326 81.8393L87.9816 78.9835L75.7832 67.5489C67.6276 59.9495 59.3452 52.484 51.0798 45.0002L26.1485 22.6944L1.06239 0.563092L0.586815 1.05785C7.79715 8.24868 14.9323 15.5131 22.0047 22.8409Z" fill="#DDCBA4"/>
</svg>
