<svg width="368" height="148" viewBox="0 0 368 148" fill="none" xmlns="http://www.w3.org/2000/svg">
<path d="M43.8324 48.5154V54.4999H37.6925C33.392 54.4999 30.2313 53.4377 28.2106 51.3134C26.1899 49.1372 25.1795 45.9507 25.1795 41.7538V17.1942H19.1951V11.7538H25.1795V2.34965L32.0966 0.950684V11.7538H42.6666V17.1942H32.0966V39.4999C32.0966 42.6605 32.6925 44.9662 33.8842 46.417C35.0759 47.816 37.1225 48.5154 40.0241 48.5154H43.8324ZM68.0234 55.4325C63.8783 55.4325 60.1736 54.4999 56.9094 52.6346C53.6451 50.7175 51.0804 48.075 49.2151 44.7072C47.4016 41.2875 46.4949 37.4274 46.4949 33.1268C46.4949 28.8263 47.4016 24.9921 49.2151 21.6243C51.0804 18.2046 53.6451 15.5621 56.9094 13.6968C60.1736 11.7797 63.8783 10.8211 68.0234 10.8211C72.1685 10.8211 75.8731 11.7797 79.1374 13.6968C82.4534 15.5621 85.0182 18.2046 86.8317 21.6243C88.697 24.9921 89.6296 28.8263 89.6296 33.1268C89.6296 37.4274 88.697 41.2875 86.8317 44.7072C85.0182 48.075 82.4534 50.7175 79.1374 52.6346C75.8731 54.4999 72.1685 55.4325 68.0234 55.4325ZM68.0234 49.2149C70.8731 49.2149 73.412 48.5414 75.64 47.1942C77.9198 45.7952 79.7073 43.8781 81.0027 41.4429C82.298 38.9559 82.9457 36.1838 82.9457 33.1268C82.9457 30.0698 82.298 27.3237 81.0027 24.8885C79.7073 22.4015 77.9198 20.4844 75.64 19.1372C73.412 17.7382 70.8731 17.0388 68.0234 17.0388C65.2255 17.0388 62.6866 17.7382 60.4068 19.1372C58.1788 20.4844 56.4172 22.4015 55.1218 24.8885C53.8265 27.3237 53.1788 30.0698 53.1788 33.1268C53.1788 36.1838 53.8265 38.9559 55.1218 41.4429C56.4172 43.8781 58.1788 45.7952 60.4068 47.1942C62.6866 48.5414 65.2255 49.2149 68.0234 49.2149ZM142.973 48.5154V54.4999H136.833C132.532 54.4999 129.372 53.4377 127.351 51.3134C125.33 49.1372 124.32 45.9507 124.32 41.7538V17.1942H118.335V11.7538H124.32V2.34965L131.237 0.950684V11.7538H141.807V17.1942H131.237V39.4999C131.237 42.6605 131.833 44.9662 133.025 46.417C134.216 47.816 136.263 48.5154 139.164 48.5154H142.973ZM166.678 10.8989C172.688 10.8989 177.326 12.4792 180.59 15.6398C183.906 18.7486 185.564 23.5154 185.564 29.9403V54.4999H178.491V50.1476C176.989 51.8056 175.098 53.075 172.818 53.9559C170.538 54.8367 167.999 55.2771 165.201 55.2771C161.782 55.2771 158.725 54.6553 156.03 53.4118C153.336 52.1165 151.237 50.3548 149.735 48.1268C148.232 45.8471 147.481 43.2823 147.481 40.4325C147.481 37.5828 148.232 35.0439 149.735 32.816C151.237 30.5362 153.336 28.7745 156.03 27.531C158.725 26.2357 161.782 25.588 165.201 25.588C167.999 25.588 170.538 26.0284 172.818 26.9092C175.098 27.7901 176.989 29.0595 178.491 30.7175V29.9403C178.491 25.4844 177.377 22.1424 175.149 19.9144C172.921 17.6346 169.735 16.4947 165.59 16.4947C162.947 16.4947 160.383 16.9092 157.896 17.7382C155.46 18.5673 153.336 19.6035 151.522 20.8471L149.191 16.1061C151.263 14.6553 153.828 13.4377 156.885 12.4533C159.942 11.417 163.206 10.8989 166.678 10.8989ZM166.6 50.303C170.227 50.303 173.155 49.3704 175.383 47.5051C177.662 45.6398 178.802 43.2564 178.802 40.3548C178.802 37.4533 177.662 35.0698 175.383 33.2046C173.155 31.3393 170.227 30.4066 166.6 30.4066C162.973 30.4066 160.02 31.3393 157.74 33.2046C155.512 35.0698 154.398 37.4533 154.398 40.3548C154.398 43.2564 155.512 45.6398 157.74 47.5051C160.02 49.3704 162.973 50.303 166.6 50.303ZM219.417 11.132C223.147 11.132 226.515 12.0906 229.52 14.0077C232.525 15.9248 234.883 18.5673 236.593 21.9351C238.303 25.2512 239.157 28.9818 239.157 33.1268C239.157 37.2719 238.303 41.0284 236.593 44.3963C234.883 47.7123 232.525 50.3289 229.52 52.246C226.515 54.1631 223.147 55.1217 219.417 55.1217C215.841 55.1217 212.655 54.3186 209.857 52.7123C207.059 51.0543 204.831 48.7486 203.173 45.7952V70.0439H196.256V11.7538H203.173V20.4584C204.831 17.5051 207.059 15.2253 209.857 13.6191C212.655 11.961 215.841 11.132 219.417 11.132ZM218.018 49.1372C220.764 49.1372 223.225 48.4377 225.401 47.0388C227.577 45.6398 229.261 43.7227 230.453 41.2875C231.696 38.8522 232.318 36.132 232.318 33.1268C232.318 30.1217 231.696 27.4015 230.453 24.9662C229.261 22.531 227.577 20.6139 225.401 19.2149C223.225 17.816 220.764 17.1165 218.018 17.1165C215.22 17.1165 212.681 17.816 210.401 19.2149C208.173 20.6139 206.411 22.531 205.116 24.9662C203.821 27.4015 203.173 30.1217 203.173 33.1268C203.173 36.132 203.821 38.8522 205.116 41.2875C206.411 43.7227 208.173 45.6398 210.401 47.0388C212.681 48.4377 215.22 49.1372 218.018 49.1372ZM290.386 55.4325C286.241 55.4325 282.537 54.4999 279.272 52.6346C276.008 50.7175 273.443 48.075 271.578 44.7072C269.765 41.2875 268.858 37.4274 268.858 33.1268C268.858 28.8263 269.765 24.9921 271.578 21.6243C273.443 18.2046 276.008 15.5621 279.272 13.6968C282.537 11.7797 286.241 10.8211 290.386 10.8211C294.532 10.8211 298.236 11.7797 301.5 13.6968C304.817 15.5621 307.381 18.2046 309.195 21.6243C311.06 24.9921 311.993 28.8263 311.993 33.1268C311.993 37.4274 311.06 41.2875 309.195 44.7072C307.381 48.075 304.817 50.7175 301.5 52.6346C298.236 54.4999 294.532 55.4325 290.386 55.4325ZM290.386 49.2149C293.236 49.2149 295.775 48.5414 298.003 47.1942C300.283 45.7952 302.07 43.8781 303.366 41.4429C304.661 38.9559 305.309 36.1838 305.309 33.1268C305.309 30.0698 304.661 27.3237 303.366 24.8885C302.07 22.4015 300.283 20.4844 298.003 19.1372C295.775 17.7382 293.236 17.0388 290.386 17.0388C287.589 17.0388 285.05 17.7382 282.77 19.1372C280.542 20.4844 278.78 22.4015 277.485 24.8885C276.19 27.3237 275.542 30.0698 275.542 33.1268C275.542 36.1838 276.19 38.9559 277.485 41.4429C278.78 43.8781 280.542 45.7952 282.77 47.1942C285.05 48.5414 287.589 49.2149 290.386 49.2149ZM327.667 23.2564C328.289 20.9766 329.428 18.93 331.087 17.1165C332.796 15.2512 334.843 13.8263 337.226 12.8419C339.662 11.8056 342.278 11.3393 345.076 11.4429V18.0491C342.175 17.8937 339.403 18.4636 336.76 19.759C334.169 21.0025 332.071 22.9455 330.465 25.588C328.859 28.1787 328.055 31.3393 328.055 35.0698V54.4999H321.061V11.7538H326.967L327.511 23.2564H327.667ZM21.9338 88.0543C27.2188 88.0543 31.3638 89.7901 34.369 93.2616C37.3742 96.6812 38.8509 101.448 38.7991 107.562V131.5H31.882L31.9597 107.951C31.9597 103.702 30.8198 100.308 28.54 97.7693C26.312 95.1787 23.3587 93.8833 19.6799 93.8833C15.8975 93.8833 12.8405 95.1787 10.5089 97.7693C8.22911 100.308 7.08922 103.702 7.08922 107.951V131.5H0.172119L0.172119 88.7538H7.08922V96.4481C8.59181 93.7538 10.6125 91.6812 13.1514 90.2305C15.6903 88.7797 18.6177 88.0543 21.9338 88.0543ZM68.3749 132.433C64.2299 132.433 60.5252 131.5 57.261 129.635C53.9967 127.718 51.4319 125.075 49.5667 121.707C47.7532 118.288 46.8465 114.427 46.8465 110.127C46.8465 105.826 47.7532 101.992 49.5667 98.6243C51.4319 95.2046 53.9967 92.5621 57.261 90.6968C60.5252 88.7797 64.2299 87.8211 68.3749 87.8211C72.52 87.8211 76.2247 88.7797 79.4889 90.6968C82.805 92.5621 85.3698 95.2046 87.1832 98.6243C89.0485 101.992 89.9812 105.826 89.9812 110.127C89.9812 114.427 89.0485 118.288 87.1832 121.707C85.3698 125.075 82.805 127.718 79.4889 129.635C76.2247 131.5 72.52 132.433 68.3749 132.433ZM68.3749 126.215C71.2247 126.215 73.7636 125.541 75.9915 124.194C78.2713 122.795 80.0589 120.878 81.3542 118.443C82.6496 115.956 83.2972 113.184 83.2972 110.127C83.2972 107.07 82.6496 104.324 81.3542 101.889C80.0589 99.4015 78.2713 97.4844 75.9915 96.1372C73.7636 94.7382 71.2247 94.0388 68.3749 94.0388C65.577 94.0388 63.0382 94.7382 60.7584 96.1372C58.5304 97.4844 56.7687 99.4015 55.4734 101.889C54.1781 104.324 53.5304 107.07 53.5304 110.127C53.5304 113.184 54.1781 115.956 55.4734 118.443C56.7687 120.878 58.5304 122.795 60.7584 124.194C63.0382 125.541 65.577 126.215 68.3749 126.215ZM119.33 125.516V131.5H113.19C108.89 131.5 105.729 130.438 103.708 128.313C101.688 126.137 100.677 122.951 100.677 118.754V94.1942H94.6931V88.7538H100.677V79.3496L107.594 77.9507V88.7538H118.164V94.1942H107.594V116.5C107.594 119.661 108.19 121.966 109.382 123.417C110.574 124.816 112.62 125.516 115.522 125.516H119.33ZM171.801 125.516V131.5H165.661C161.361 131.5 158.2 130.438 156.179 128.313C154.158 126.137 153.148 122.951 153.148 118.754V94.1942H147.164V88.7538H153.148V79.3496L160.065 77.9507V88.7538H170.635V94.1942H160.065V116.5C160.065 119.661 160.661 121.966 161.853 123.417C163.044 124.816 165.091 125.516 167.993 125.516H171.801ZM195.992 132.433C191.847 132.433 188.142 131.5 184.878 129.635C181.614 127.718 179.049 125.075 177.184 121.707C175.37 118.288 174.463 114.427 174.463 110.127C174.463 105.826 175.37 101.992 177.184 98.6243C179.049 95.2046 181.614 92.5621 184.878 90.6968C188.142 88.7797 191.847 87.8211 195.992 87.8211C200.137 87.8211 203.842 88.7797 207.106 90.6968C210.422 92.5621 212.987 95.2046 214.8 98.6243C216.666 101.992 217.598 105.826 217.598 110.127C217.598 114.427 216.666 118.288 214.8 121.707C212.987 125.075 210.422 127.718 207.106 129.635C203.842 131.5 200.137 132.433 195.992 132.433ZM195.992 126.215C198.842 126.215 201.381 125.541 203.609 124.194C205.888 122.795 207.676 120.878 208.971 118.443C210.267 115.956 210.914 113.184 210.914 110.127C210.914 107.07 210.267 104.324 208.971 101.889C207.676 99.4015 205.888 97.4844 203.609 96.1372C201.381 94.7382 198.842 94.0388 195.992 94.0388C193.194 94.0388 190.655 94.7382 188.375 96.1372C186.147 97.4844 184.386 99.4015 183.09 101.889C181.795 104.324 181.147 107.07 181.147 110.127C181.147 113.184 181.795 115.956 183.09 118.443C184.386 120.878 186.147 122.795 188.375 124.194C190.655 125.541 193.194 126.215 195.992 126.215ZM270.942 125.516V131.5H264.802C260.501 131.5 257.341 130.438 255.32 128.313C253.299 126.137 252.289 122.951 252.289 118.754V94.1942H246.304V88.7538H252.289V79.3496L259.206 77.9507V88.7538H269.776V94.1942H259.206V116.5C259.206 119.661 259.802 121.966 260.993 123.417C262.185 124.816 264.232 125.516 267.133 125.516H270.942ZM294.647 87.8989C300.657 87.8989 305.294 89.4792 308.559 92.6398C311.875 95.7486 313.533 100.516 313.533 106.94V131.5H306.46V127.148C304.958 128.806 303.066 130.075 300.787 130.956C298.507 131.837 295.968 132.277 293.17 132.277C289.75 132.277 286.693 131.655 283.999 130.412C281.305 129.117 279.206 127.355 277.704 125.127C276.201 122.847 275.45 120.282 275.45 117.433C275.45 114.583 276.201 112.044 277.704 109.816C279.206 107.536 281.305 105.775 283.999 104.531C286.693 103.236 289.75 102.588 293.17 102.588C295.968 102.588 298.507 103.028 300.787 103.909C303.066 104.79 304.958 106.06 306.46 107.718V106.94C306.46 102.484 305.346 99.1424 303.118 96.9144C300.89 94.6346 297.704 93.4947 293.559 93.4947C290.916 93.4947 288.351 93.9092 285.864 94.7382C283.429 95.5673 281.305 96.6035 279.491 97.8471L277.16 93.1061C279.232 91.6553 281.797 90.4377 284.854 89.4533C287.911 88.417 291.175 87.8989 294.647 87.8989ZM294.569 127.303C298.196 127.303 301.123 126.37 303.351 124.505C305.631 122.64 306.771 120.256 306.771 117.355C306.771 114.453 305.631 112.07 303.351 110.205C301.123 108.339 298.196 107.407 294.569 107.407C290.942 107.407 287.989 108.339 285.709 110.205C283.481 112.07 282.367 114.453 282.367 117.355C282.367 120.256 283.481 122.64 285.709 124.505C287.989 126.37 290.942 127.303 294.569 127.303ZM347.385 88.132C351.116 88.132 354.484 89.0906 357.489 91.0077C360.494 92.9248 362.852 95.5673 364.561 98.9351C366.271 102.251 367.126 105.982 367.126 110.127C367.126 114.272 366.271 118.028 364.561 121.396C362.852 124.712 360.494 127.329 357.489 129.246C354.484 131.163 351.116 132.122 347.385 132.122C343.81 132.122 340.624 131.319 337.826 129.712C335.028 128.054 332.8 125.749 331.142 122.795V147.044H324.225V88.7538H331.142V97.4585C332.8 94.5051 335.028 92.2253 337.826 90.6191C340.624 88.961 343.81 88.132 347.385 88.132ZM345.986 126.137C348.732 126.137 351.194 125.438 353.37 124.039C355.546 122.64 357.23 120.723 358.422 118.288C359.665 115.852 360.287 113.132 360.287 110.127C360.287 107.122 359.665 104.402 358.422 101.966C357.23 99.531 355.546 97.6139 353.37 96.2149C351.194 94.816 348.732 94.1165 345.986 94.1165C343.188 94.1165 340.65 94.816 338.37 96.2149C336.142 97.6139 334.38 99.531 333.085 101.966C331.789 104.402 331.142 107.122 331.142 110.127C331.142 113.132 331.789 115.852 333.085 118.288C334.38 120.723 336.142 122.64 338.37 124.039C340.65 125.438 343.188 126.137 345.986 126.137Z" fill="url(#paint0_linear_3033_9399)"/>
<defs>
<linearGradient id="paint0_linear_3033_9399" x1="-39.8828" y1="68.1789" x2="404.497" y2="68.1789" gradientUnits="userSpaceOnUse">
<stop stop-color="#8A41E8"/>
<stop offset="1" stop-color="#ECECEC"/>
</linearGradient>
</defs>
</svg>
