<svg width="24" height="20" viewBox="0 0 24 20" fill="none" xmlns="http://www.w3.org/2000/svg">
<path d="M23.3502 2.22576C23.3502 2.119 23.3519 2.05529 23.3502 1.99158C23.3244 1.3149 22.9611 0.963636 22.2844 0.961914C21.9262 0.961914 21.5853 1.04628 21.2564 1.18231C19.2746 2.00019 17.2962 2.8284 15.316 3.64973C10.7617 5.5386 6.19711 7.40682 1.63764 9.28364C1.3277 9.41105 1.02466 9.55224 0.752603 9.7537C0.621742 9.85185 0.501212 9.96033 0.413397 10.1015C0.26704 10.3322 0.270483 10.5647 0.423728 10.7885C0.532205 10.9469 0.669954 11.0675 0.862802 11.1312C2.10598 11.5496 3.3526 11.9594 4.60956 12.3348C5.14333 12.4949 5.68916 12.5655 6.24532 12.5259C6.69472 12.4932 7.10796 12.3692 7.49022 12.1109C9.54267 10.7179 11.602 9.33529 13.6596 7.95092C14.493 7.3896 15.3281 6.82999 16.1684 6.279C16.4852 6.07066 16.8192 5.8847 17.1843 5.76761C17.3392 5.71768 17.5217 5.6488 17.6474 5.77622C17.7869 5.91913 17.6957 6.10165 17.6251 6.25834C17.489 6.55794 17.291 6.8145 17.0586 7.04695C15.0423 9.05291 12.9743 11.0038 10.8805 12.9254C10.7462 13.0493 10.624 13.1819 10.5293 13.3369C10.2968 13.7157 10.3072 14.0893 10.5534 14.4578C10.6756 14.6403 10.8392 14.7832 11.0097 14.9193C11.6657 15.4479 12.3562 15.93 13.0466 16.4104C14.3776 17.3367 15.7482 18.1994 17.0896 19.1085C17.3737 19.3014 17.6784 19.465 17.9918 19.6079C18.3964 19.7938 18.8114 19.9471 19.2574 19.9953C19.7343 20.0469 20.1321 19.8989 20.4334 19.5183C20.6572 19.2342 20.7829 18.9036 20.8415 18.5524C21.0137 17.5089 21.1738 16.4638 21.3391 15.4186C21.5302 14.2219 21.7231 13.0269 21.9125 11.8303C22.1191 10.5268 22.324 9.22337 22.5254 7.91821C22.72 6.65953 22.9146 5.39913 23.1023 4.13873C23.2004 3.48615 23.302 2.83357 23.3485 2.21887L23.3502 2.22576Z" fill="#A392FA"/>
</svg>
